<?xml version="1.0" ?><!DOCTYPE svg  PUBLIC '-//W3C//DTD SVG 1.1//EN'  'http://www.w3.org/Graphics/SVG/1.1/DTD/svg11.dtd'><svg enable-background="new 0 0 128 128" id="Слой_1" version="1.1" viewBox="0 0 128 128" xml:space="preserve" xmlns="http://www.w3.org/2000/svg" xmlns:xlink="http://www.w3.org/1999/xlink"><g><path d="M119,27.5H9c-1.4,0-2.5,1.1-2.5,2.5s1.1,2.5,2.5,2.5h6.7c0.9,17.2,10.8,32,25,39.9l-24,48.5   c-0.6,1.2-0.1,2.7,1.1,3.3c0.4,0.2,0.7,0.3,1.1,0.3c0.9,0,1.8-0.5,2.2-1.4l13-26.3H95l2.6,5.4c-2.9,2.3-4.8,5.8-4.8,9.8   c0,6.9,5.6,12.5,12.5,12.5s12.5-5.6,12.5-12.5s-5.6-12.5-12.5-12.5c-1.1,0-2.2,0.2-3.3,0.4L88.5,71.6c13.6-8,22.9-22.5,23.7-39.1   h6.7c1.4,0,2.5-1.1,2.5-2.5S120.4,27.5,119,27.5z M112.8,112c0,4.1-3.4,7.5-7.5,7.5s-7.5-3.4-7.5-7.5s3.4-7.5,7.5-7.5   S112.8,107.9,112.8,112z M92.6,91.8H36.7l8.5-17.3C51,77,57.4,78.3,64,78.3c7.2,0,14-1.6,20.1-4.4L92.6,91.8z M64,73.3   c-23.1,0-42-18.1-43.3-40.8h5C27,52.5,43.7,68.3,64,68.3c1.4,0,2.5-1.1,2.5-2.5s-1.1-2.5-2.5-2.5c-17.5,0-31.9-13.6-33.2-30.8h76.5   C106,55.2,87.1,73.3,64,73.3z" fill="#FFFFFF"/><path d="M64,22.5c1.4,0,2.5-1.1,2.5-2.5V9c0-1.4-1.1-2.5-2.5-2.5S61.5,7.6,61.5,9v11C61.5,21.4,62.6,22.5,64,22.5z" fill="#FFFFFF"/><path d="M79,22.5c1.4,0,2.5-1.1,2.5-2.5v-6c0-1.4-1.1-2.5-2.5-2.5s-2.5,1.1-2.5,2.5v6C76.5,21.4,77.6,22.5,79,22.5z   " fill="#FFFFFF"/><path d="M49,22.5c1.4,0,2.5-1.1,2.5-2.5V4c0-1.4-1.1-2.5-2.5-2.5S46.5,2.6,46.5,4v16C46.5,21.4,47.6,22.5,49,22.5z" fill="#FFFFFF"/></g></svg>